<?xml version="1.0" encoding="utf-8"?>
<!-- Generator: Adobe Illustrator 26.4.1, SVG Export Plug-In . SVG Version: 6.00 Build 0)  -->
<svg version="1.1" id="Layer_1" xmlns="http://www.w3.org/2000/svg" xmlns:xlink="http://www.w3.org/1999/xlink" x="0px" y="0px"
	 viewBox="0 0 97 97" style="enable-background:new 0 0 97 97;" xml:space="preserve">
<style type="text/css">
	.st0{fill:none;stroke:#9747FF;stroke-dasharray:10,5;}
	.st1{fill:none;stroke:#FFFFFF;stroke-width:3;}
	.st2{fill:#FFFFFF;}
</style>
<g id="Team">
	<path class="st0" d="M-15-19.5h801c2.5,0,4.5,2,4.5,4.5v127c0,2.5-2,4.5-4.5,4.5H-15c-2.5,0-4.5-2-4.5-4.5V-15
		C-19.5-17.5-17.5-19.5-15-19.5z"/>
	<g id="Property_1_x3D_Group_27">
		<circle id="Ellipse_2" class="st1" cx="48.4" cy="48.4" r="46.9"/>
		<path id="Vector_5" class="st2" d="M17.5,49.2c-0.8,0-1.5,0.7-1.5,1.5c0,0.8,0.7,1.5,1.5,1.5V49.2z M80.3,51.8
			c0.6-0.6,0.6-1.5,0-2.1l-9.5-9.5c-0.6-0.6-1.5-0.6-2.1,0s-0.6,1.5,0,2.1l8.5,8.5l-8.5,8.5c-0.6,0.6-0.6,1.5,0,2.1s1.5,0.6,2.1,0
			L80.3,51.8z M17.5,52.2h61.7v-3H17.5V52.2z"/>
	</g>
</g>
</svg>
