<svg width="563" height="103" viewBox="0 0 563 103" fill="none" xmlns="http://www.w3.org/2000/svg">
<rect x="1" y="1" width="561" height="101" rx="50.5" stroke="white" stroke-width="2"/>
<path d="M166.786 64.54C164.782 64.54 162.928 64.234 161.224 63.622C159.52 63.01 158.026 62.134 156.742 60.994C155.47 59.842 154.48 58.462 153.772 56.854C153.064 55.246 152.71 53.44 152.71 51.436C152.71 49.444 153.052 47.644 153.736 46.036C154.42 44.416 155.374 43.03 156.598 41.878C157.834 40.714 159.28 39.82 160.936 39.196C162.604 38.572 164.422 38.26 166.39 38.26C167.302 38.26 168.226 38.332 169.162 38.476C170.098 38.62 171.016 38.86 171.916 39.196C172.828 39.52 173.692 39.964 174.508 40.528L172.744 43.696C171.832 43.12 170.842 42.688 169.774 42.4C168.718 42.112 167.626 41.968 166.498 41.968C165.034 41.968 163.708 42.19 162.52 42.634C161.332 43.066 160.318 43.696 159.478 44.524C158.638 45.34 157.99 46.33 157.534 47.494C157.09 48.658 156.868 49.966 156.868 51.418C156.868 53.458 157.3 55.192 158.164 56.62C159.028 58.048 160.216 59.134 161.728 59.878C163.252 60.61 165.004 60.976 166.984 60.976C167.956 60.976 168.832 60.886 169.612 60.706C170.392 60.514 171.022 60.298 171.502 60.058V53.974H165.778V50.626H175.12V62.398C174.46 62.842 173.632 63.226 172.636 63.55C171.652 63.874 170.632 64.12 169.576 64.288C168.532 64.456 167.602 64.54 166.786 64.54ZM188.925 64.54C187.005 64.54 185.319 64.15 183.867 63.37C182.415 62.578 181.281 61.474 180.465 60.058C179.661 58.642 179.259 56.998 179.259 55.126C179.259 53.758 179.493 52.498 179.961 51.346C180.429 50.182 181.089 49.174 181.941 48.322C182.793 47.47 183.789 46.81 184.929 46.342C186.081 45.874 187.335 45.64 188.691 45.64C190.167 45.64 191.481 45.904 192.633 46.432C193.785 46.948 194.739 47.674 195.495 48.61C196.263 49.546 196.803 50.644 197.115 51.904C197.439 53.152 197.493 54.508 197.277 55.972H183.057C183.033 57.04 183.267 57.976 183.759 58.78C184.251 59.572 184.953 60.19 185.865 60.634C186.789 61.078 187.875 61.3 189.123 61.3C190.131 61.3 191.103 61.15 192.039 60.85C192.987 60.538 193.845 60.082 194.613 59.482L196.143 62.326C195.567 62.794 194.871 63.196 194.055 63.532C193.239 63.856 192.387 64.102 191.499 64.27C190.611 64.45 189.753 64.54 188.925 64.54ZM183.291 53.056H193.389C193.353 51.712 192.921 50.656 192.093 49.888C191.277 49.12 190.113 48.736 188.601 48.736C187.137 48.736 185.919 49.12 184.947 49.888C183.987 50.656 183.435 51.712 183.291 53.056ZM208.703 64.54C206.963 64.54 205.571 64.036 204.527 63.028C203.483 62.02 202.961 60.478 202.961 58.402V40.978H206.921V46.18H211.871V49.456H206.921V57.538C206.921 58.786 207.155 59.668 207.623 60.184C208.103 60.688 208.775 60.94 209.639 60.94C210.059 60.94 210.455 60.892 210.827 60.796C211.199 60.7 211.535 60.574 211.835 60.418L212.537 63.622C212.021 63.886 211.427 64.102 210.755 64.27C210.095 64.45 209.411 64.54 208.703 64.54ZM199.055 49.456V46.18H203.483V49.456H199.055ZM230.458 64.54C229.222 64.54 228.136 64.312 227.2 63.856C226.264 63.388 225.532 62.734 225.004 61.894C224.488 61.042 224.23 60.04 224.23 58.888C224.23 57.916 224.476 57.04 224.968 56.26C225.46 55.468 226.222 54.814 227.254 54.298C228.298 53.782 229.636 53.44 231.268 53.272C232.9 53.092 234.862 53.116 237.154 53.344L237.226 56.08C235.594 55.852 234.19 55.756 233.014 55.792C231.838 55.828 230.872 55.978 230.116 56.242C229.372 56.494 228.82 56.836 228.46 57.268C228.112 57.688 227.938 58.174 227.938 58.726C227.938 59.59 228.244 60.256 228.856 60.724C229.48 61.192 230.332 61.426 231.412 61.426C232.336 61.426 233.164 61.258 233.896 60.922C234.628 60.586 235.204 60.112 235.624 59.5C236.056 58.888 236.272 58.168 236.272 57.34V52.606C236.272 51.814 236.104 51.13 235.768 50.554C235.432 49.966 234.922 49.51 234.238 49.186C233.554 48.862 232.702 48.7 231.682 48.7C230.746 48.7 229.822 48.844 228.91 49.132C227.998 49.408 227.128 49.846 226.3 50.446L225.184 47.53C226.3 46.774 227.464 46.24 228.676 45.928C229.888 45.616 231.052 45.46 232.168 45.46C233.824 45.46 235.24 45.724 236.416 46.252C237.604 46.768 238.516 47.554 239.152 48.61C239.788 49.654 240.106 50.974 240.106 52.57V64H236.542V61.894C235.942 62.746 235.108 63.4 234.04 63.856C232.972 64.312 231.778 64.54 230.458 64.54ZM253.543 64.54C251.671 64.54 250.003 64.132 248.539 63.316C247.075 62.488 245.923 61.366 245.083 59.95C244.255 58.522 243.841 56.902 243.841 55.09C243.841 53.722 244.087 52.468 244.579 51.328C245.071 50.176 245.767 49.174 246.667 48.322C247.567 47.47 248.623 46.81 249.835 46.342C251.059 45.874 252.385 45.64 253.813 45.64C255.013 45.64 256.123 45.802 257.143 46.126C258.175 46.438 259.123 46.924 259.987 47.584L258.079 50.608C257.527 50.116 256.891 49.75 256.171 49.51C255.463 49.27 254.707 49.15 253.903 49.15C252.655 49.15 251.581 49.384 250.681 49.852C249.781 50.32 249.079 50.998 248.575 51.886C248.083 52.762 247.837 53.824 247.837 55.072C247.837 56.932 248.377 58.39 249.457 59.446C250.549 60.502 252.031 61.03 253.903 61.03C254.791 61.03 255.631 60.868 256.423 60.544C257.215 60.208 257.875 59.77 258.403 59.23L260.293 62.236C259.345 62.956 258.289 63.52 257.125 63.928C255.961 64.336 254.767 64.54 253.543 64.54ZM277.406 71.56V59.986L278.216 60.868C277.424 62.008 276.434 62.908 275.246 63.568C274.058 64.216 272.654 64.54 271.034 64.54C269.27 64.54 267.71 64.12 266.354 63.28C264.998 62.428 263.942 61.288 263.186 59.86C262.43 58.432 262.052 56.842 262.052 55.09C262.052 53.734 262.268 52.48 262.7 51.328C263.144 50.176 263.762 49.174 264.554 48.322C265.346 47.47 266.288 46.81 267.38 46.342C268.472 45.874 269.672 45.64 270.98 45.64C272.216 45.64 273.308 45.808 274.256 46.144C275.204 46.48 276.014 46.948 276.686 47.548C277.37 48.136 277.928 48.808 278.36 49.564L277.784 50.464V46.18H281.348V71.56H277.406ZM271.7 61.03C272.804 61.03 273.782 60.79 274.634 60.31C275.498 59.818 276.176 59.128 276.668 58.24C277.16 57.352 277.406 56.302 277.406 55.09C277.406 53.878 277.16 52.828 276.668 51.94C276.176 51.04 275.498 50.35 274.634 49.87C273.782 49.39 272.804 49.15 271.7 49.15C270.608 49.15 269.63 49.39 268.766 49.87C267.914 50.35 267.242 51.04 266.75 51.94C266.258 52.828 266.012 53.878 266.012 55.09C266.012 56.302 266.258 57.352 266.75 58.24C267.242 59.128 267.914 59.818 268.766 60.31C269.618 60.79 270.596 61.03 271.7 61.03ZM293.732 64.54C292.136 64.54 290.816 64.222 289.772 63.586C288.74 62.938 287.966 62.086 287.45 61.03C286.934 59.974 286.676 58.822 286.676 57.574V46.18H290.636V56.836C290.636 58.06 290.996 59.044 291.716 59.788C292.448 60.52 293.456 60.886 294.74 60.886C295.58 60.886 296.33 60.7 296.99 60.328C297.65 59.944 298.172 59.41 298.556 58.726C298.952 58.042 299.15 57.25 299.15 56.35V46.18H303.11V64H299.546V61.894C298.85 62.734 298.022 63.388 297.062 63.856C296.114 64.312 295.004 64.54 293.732 64.54ZM313.567 64.54C312.331 64.54 311.245 64.312 310.309 63.856C309.373 63.388 308.641 62.734 308.113 61.894C307.597 61.042 307.339 60.04 307.339 58.888C307.339 57.916 307.585 57.04 308.077 56.26C308.569 55.468 309.331 54.814 310.363 54.298C311.407 53.782 312.745 53.44 314.377 53.272C316.009 53.092 317.971 53.116 320.263 53.344L320.335 56.08C318.703 55.852 317.299 55.756 316.123 55.792C314.947 55.828 313.981 55.978 313.225 56.242C312.481 56.494 311.929 56.836 311.569 57.268C311.221 57.688 311.047 58.174 311.047 58.726C311.047 59.59 311.353 60.256 311.965 60.724C312.589 61.192 313.441 61.426 314.521 61.426C315.445 61.426 316.273 61.258 317.005 60.922C317.737 60.586 318.313 60.112 318.733 59.5C319.165 58.888 319.381 58.168 319.381 57.34V52.606C319.381 51.814 319.213 51.13 318.877 50.554C318.541 49.966 318.031 49.51 317.347 49.186C316.663 48.862 315.811 48.7 314.791 48.7C313.855 48.7 312.931 48.844 312.019 49.132C311.107 49.408 310.237 49.846 309.409 50.446L308.293 47.53C309.409 46.774 310.573 46.24 311.785 45.928C312.997 45.616 314.161 45.46 315.277 45.46C316.933 45.46 318.349 45.724 319.525 46.252C320.713 46.768 321.625 47.554 322.261 48.61C322.897 49.654 323.215 50.974 323.215 52.57V64H319.651V61.894C319.051 62.746 318.217 63.4 317.149 63.856C316.081 64.312 314.887 64.54 313.567 64.54ZM328.481 64V46.18H332.441V64H328.481ZM330.461 42.994C329.753 42.994 329.141 42.766 328.625 42.31C328.109 41.854 327.851 41.254 327.851 40.51C327.851 39.778 328.109 39.184 328.625 38.728C329.141 38.26 329.753 38.026 330.461 38.026C331.169 38.026 331.781 38.26 332.297 38.728C332.813 39.184 333.071 39.778 333.071 40.51C333.071 41.254 332.813 41.854 332.297 42.31C331.781 42.766 331.169 42.994 330.461 42.994ZM337.938 64V46.18H341.898V48.448C342.642 47.452 343.506 46.738 344.49 46.306C345.474 45.862 346.494 45.64 347.55 45.64C349.182 45.64 350.532 45.964 351.6 46.612C352.668 47.26 353.46 48.094 353.976 49.114C354.504 50.134 354.768 51.184 354.768 52.264V64H350.808V53.488C350.808 52.216 350.424 51.196 349.656 50.428C348.9 49.66 347.844 49.276 346.488 49.276C345.6 49.276 344.808 49.474 344.112 49.87C343.428 50.266 342.888 50.818 342.492 51.526C342.096 52.222 341.898 53.038 341.898 53.974V64H337.938ZM367.222 64.54C365.482 64.54 364.09 64.036 363.046 63.028C362.002 62.02 361.48 60.478 361.48 58.402V40.978H365.44V46.18H370.39V49.456H365.44V57.538C365.44 58.786 365.674 59.668 366.142 60.184C366.622 60.688 367.294 60.94 368.158 60.94C368.578 60.94 368.974 60.892 369.346 60.796C369.718 60.7 370.054 60.574 370.354 60.418L371.056 63.622C370.54 63.886 369.946 64.102 369.274 64.27C368.614 64.45 367.93 64.54 367.222 64.54ZM357.574 49.456V46.18H362.002V49.456H357.574ZM383.234 64.54C381.314 64.54 379.628 64.15 378.176 63.37C376.724 62.578 375.59 61.474 374.774 60.058C373.97 58.642 373.568 56.998 373.568 55.126C373.568 53.758 373.802 52.498 374.27 51.346C374.738 50.182 375.398 49.174 376.25 48.322C377.102 47.47 378.098 46.81 379.238 46.342C380.39 45.874 381.644 45.64 383 45.64C384.476 45.64 385.79 45.904 386.942 46.432C388.094 46.948 389.048 47.674 389.804 48.61C390.572 49.546 391.112 50.644 391.424 51.904C391.748 53.152 391.802 54.508 391.586 55.972H377.366C377.342 57.04 377.576 57.976 378.068 58.78C378.56 59.572 379.262 60.19 380.174 60.634C381.098 61.078 382.184 61.3 383.432 61.3C384.44 61.3 385.412 61.15 386.348 60.85C387.296 60.538 388.154 60.082 388.922 59.482L390.452 62.326C389.876 62.794 389.18 63.196 388.364 63.532C387.548 63.856 386.696 64.102 385.808 64.27C384.92 64.45 384.062 64.54 383.234 64.54ZM377.6 53.056H387.698C387.662 51.712 387.23 50.656 386.402 49.888C385.586 49.12 384.422 48.736 382.91 48.736C381.446 48.736 380.228 49.12 379.256 49.888C378.296 50.656 377.744 51.712 377.6 53.056ZM403.273 64.54C401.533 64.54 399.991 64.132 398.647 63.316C397.303 62.488 396.247 61.366 395.479 59.95C394.723 58.522 394.345 56.902 394.345 55.09C394.345 53.782 394.561 52.558 394.993 51.418C395.425 50.266 396.037 49.258 396.829 48.394C397.633 47.53 398.581 46.858 399.673 46.378C400.777 45.886 401.995 45.64 403.327 45.64C404.947 45.64 406.351 45.964 407.539 46.612C408.727 47.26 409.717 48.16 410.509 49.312L409.681 50.194V38.08H413.641V64H410.077V59.716L410.653 60.616C410.005 61.744 409.075 62.68 407.863 63.424C406.663 64.168 405.133 64.54 403.273 64.54ZM403.993 61.03C405.097 61.03 406.075 60.79 406.927 60.31C407.791 59.818 408.469 59.128 408.961 58.24C409.453 57.352 409.699 56.302 409.699 55.09C409.699 53.878 409.453 52.828 408.961 51.94C408.469 51.04 407.791 50.35 406.927 49.87C406.075 49.39 405.097 49.15 403.993 49.15C402.889 49.15 401.911 49.39 401.059 49.87C400.207 50.35 399.535 51.04 399.043 51.94C398.551 52.828 398.305 53.878 398.305 55.09C398.305 56.302 398.551 57.352 399.043 58.24C399.535 59.128 400.207 59.818 401.059 60.31C401.923 60.79 402.901 61.03 403.993 61.03Z" fill="white"/>
</svg>
