<svg width="518" height="97" viewBox="0 0 518 97" fill="none" xmlns="http://www.w3.org/2000/svg">
<path d="M172.276 60V34.8H176.182L186.46 51.522L184.894 51.54L194.794 34.8H198.628V60H194.686L194.74 40.164L195.514 40.434L186.946 54.564H183.994L175.264 40.434L175.912 40.164L175.966 60H172.276ZM212.778 60.54C210.918 60.54 209.256 60.114 207.792 59.262C206.34 58.398 205.2 57.252 204.372 55.824C203.544 54.384 203.13 52.806 203.13 51.09C203.13 49.818 203.364 48.618 203.832 47.49C204.312 46.35 204.984 45.342 205.848 44.466C206.724 43.59 207.75 42.9 208.926 42.396C210.102 41.892 211.392 41.64 212.796 41.64C214.656 41.64 216.312 42.072 217.764 42.936C219.228 43.788 220.374 44.934 221.202 46.374C222.03 47.802 222.444 49.374 222.444 51.09C222.444 52.35 222.204 53.55 221.724 54.69C221.256 55.83 220.59 56.838 219.726 57.714C218.862 58.59 217.842 59.28 216.666 59.784C215.49 60.288 214.194 60.54 212.778 60.54ZM212.778 57.03C213.882 57.03 214.86 56.79 215.712 56.31C216.576 55.818 217.254 55.128 217.746 54.24C218.238 53.352 218.484 52.302 218.484 51.09C218.484 49.878 218.238 48.828 217.746 47.94C217.254 47.04 216.576 46.35 215.712 45.87C214.86 45.39 213.882 45.15 212.778 45.15C211.674 45.15 210.69 45.39 209.826 45.87C208.974 46.35 208.302 47.04 207.81 47.94C207.33 48.828 207.09 49.878 207.09 51.09C207.09 52.302 207.336 53.352 207.828 54.24C208.32 55.128 208.992 55.818 209.844 56.31C210.708 56.79 211.686 57.03 212.778 57.03ZM226.422 60V42.18H230.382V44.646C231.054 43.53 231.87 42.75 232.83 42.306C233.79 41.85 234.822 41.622 235.926 41.622C236.286 41.622 236.628 41.64 236.952 41.676C237.276 41.712 237.588 41.766 237.888 41.838L237.366 45.924C237.006 45.816 236.64 45.732 236.268 45.672C235.896 45.612 235.524 45.582 235.152 45.582C233.772 45.582 232.632 46.008 231.732 46.86C230.832 47.7 230.382 48.846 230.382 50.298V60H226.422ZM248.972 60.54C247.052 60.54 245.366 60.15 243.914 59.37C242.462 58.578 241.328 57.474 240.512 56.058C239.708 54.642 239.306 52.998 239.306 51.126C239.306 49.758 239.54 48.498 240.008 47.346C240.476 46.182 241.136 45.174 241.988 44.322C242.84 43.47 243.836 42.81 244.976 42.342C246.128 41.874 247.382 41.64 248.738 41.64C250.214 41.64 251.528 41.904 252.68 42.432C253.832 42.948 254.786 43.674 255.542 44.61C256.31 45.546 256.85 46.644 257.162 47.904C257.486 49.152 257.54 50.508 257.324 51.972H243.104C243.08 53.04 243.314 53.976 243.806 54.78C244.298 55.572 245 56.19 245.912 56.634C246.836 57.078 247.922 57.3 249.17 57.3C250.178 57.3 251.15 57.15 252.086 56.85C253.034 56.538 253.892 56.082 254.66 55.482L256.19 58.326C255.614 58.794 254.918 59.196 254.102 59.532C253.286 59.856 252.434 60.102 251.546 60.27C250.658 60.45 249.8 60.54 248.972 60.54ZM243.338 49.056H253.436C253.4 47.712 252.968 46.656 252.14 45.888C251.324 45.12 250.16 44.736 248.648 44.736C247.184 44.736 245.966 45.12 244.994 45.888C244.034 46.656 243.482 47.712 243.338 49.056ZM278.434 60.54C276.562 60.54 274.894 60.132 273.43 59.316C271.966 58.488 270.814 57.366 269.974 55.95C269.146 54.522 268.732 52.902 268.732 51.09C268.732 49.722 268.978 48.468 269.47 47.328C269.962 46.176 270.658 45.174 271.558 44.322C272.458 43.47 273.514 42.81 274.726 42.342C275.95 41.874 277.276 41.64 278.704 41.64C279.904 41.64 281.014 41.802 282.034 42.126C283.066 42.438 284.014 42.924 284.878 43.584L282.97 46.608C282.418 46.116 281.782 45.75 281.062 45.51C280.354 45.27 279.598 45.15 278.794 45.15C277.546 45.15 276.472 45.384 275.572 45.852C274.672 46.32 273.97 46.998 273.466 47.886C272.974 48.762 272.728 49.824 272.728 51.072C272.728 52.932 273.268 54.39 274.348 55.446C275.44 56.502 276.922 57.03 278.794 57.03C279.682 57.03 280.522 56.868 281.314 56.544C282.106 56.208 282.766 55.77 283.294 55.23L285.184 58.236C284.236 58.956 283.18 59.52 282.016 59.928C280.852 60.336 279.658 60.54 278.434 60.54ZM293.774 60.54C292.538 60.54 291.452 60.312 290.516 59.856C289.58 59.388 288.848 58.734 288.32 57.894C287.804 57.042 287.546 56.04 287.546 54.888C287.546 53.916 287.792 53.04 288.284 52.26C288.776 51.468 289.538 50.814 290.57 50.298C291.614 49.782 292.952 49.44 294.584 49.272C296.216 49.092 298.178 49.116 300.47 49.344L300.542 52.08C298.91 51.852 297.506 51.756 296.33 51.792C295.154 51.828 294.188 51.978 293.432 52.242C292.688 52.494 292.136 52.836 291.776 53.268C291.428 53.688 291.254 54.174 291.254 54.726C291.254 55.59 291.56 56.256 292.172 56.724C292.796 57.192 293.648 57.426 294.728 57.426C295.652 57.426 296.48 57.258 297.212 56.922C297.944 56.586 298.52 56.112 298.94 55.5C299.372 54.888 299.588 54.168 299.588 53.34V48.606C299.588 47.814 299.42 47.13 299.084 46.554C298.748 45.966 298.238 45.51 297.554 45.186C296.87 44.862 296.018 44.7 294.998 44.7C294.062 44.7 293.138 44.844 292.226 45.132C291.314 45.408 290.444 45.846 289.616 46.446L288.5 43.53C289.616 42.774 290.78 42.24 291.992 41.928C293.204 41.616 294.368 41.46 295.484 41.46C297.14 41.46 298.556 41.724 299.732 42.252C300.92 42.768 301.832 43.554 302.468 44.61C303.104 45.654 303.422 46.974 303.422 48.57V60H299.858V57.894C299.258 58.746 298.424 59.4 297.356 59.856C296.288 60.312 295.094 60.54 293.774 60.54ZM314.7 60.522C313.224 60.522 311.844 60.312 310.56 59.892C309.276 59.472 308.196 58.908 307.32 58.2L308.814 55.302C309.642 55.95 310.572 56.46 311.604 56.832C312.648 57.204 313.674 57.39 314.682 57.39C315.846 57.39 316.752 57.186 317.4 56.778C318.048 56.37 318.372 55.8 318.372 55.068C318.372 54.372 318.09 53.862 317.526 53.538C316.974 53.202 315.918 52.854 314.358 52.494C312.114 52.026 310.482 51.366 309.462 50.514C308.454 49.65 307.95 48.456 307.95 46.932C307.95 45.864 308.244 44.922 308.832 44.106C309.432 43.278 310.254 42.63 311.298 42.162C312.342 41.694 313.548 41.46 314.916 41.46C316.248 41.46 317.502 41.652 318.678 42.036C319.854 42.408 320.874 42.936 321.738 43.62L320.334 46.536C319.89 46.14 319.374 45.798 318.786 45.51C318.198 45.222 317.574 45 316.914 44.844C316.266 44.676 315.618 44.592 314.97 44.592C313.962 44.592 313.14 44.79 312.504 45.186C311.88 45.57 311.568 46.104 311.568 46.788C311.568 47.496 311.868 48.018 312.468 48.354C313.068 48.69 314.1 49.026 315.564 49.362C317.868 49.866 319.518 50.538 320.514 51.378C321.51 52.218 322.008 53.382 322.008 54.87C322.008 56.01 321.702 57.006 321.09 57.858C320.478 58.698 319.62 59.352 318.516 59.82C317.424 60.288 316.152 60.522 314.7 60.522ZM334.613 60.54C332.693 60.54 331.007 60.15 329.555 59.37C328.103 58.578 326.969 57.474 326.153 56.058C325.349 54.642 324.947 52.998 324.947 51.126C324.947 49.758 325.181 48.498 325.649 47.346C326.117 46.182 326.777 45.174 327.629 44.322C328.481 43.47 329.477 42.81 330.617 42.342C331.769 41.874 333.023 41.64 334.379 41.64C335.855 41.64 337.169 41.904 338.321 42.432C339.473 42.948 340.427 43.674 341.183 44.61C341.951 45.546 342.491 46.644 342.803 47.904C343.127 49.152 343.181 50.508 342.965 51.972H328.745C328.721 53.04 328.955 53.976 329.447 54.78C329.939 55.572 330.641 56.19 331.553 56.634C332.477 57.078 333.563 57.3 334.811 57.3C335.819 57.3 336.791 57.15 337.727 56.85C338.675 56.538 339.533 56.082 340.301 55.482L341.831 58.326C341.255 58.794 340.559 59.196 339.743 59.532C338.927 59.856 338.075 60.102 337.187 60.27C336.299 60.45 335.441 60.54 334.613 60.54ZM328.979 49.056H339.077C339.041 47.712 338.609 46.656 337.781 45.888C336.965 45.12 335.801 44.736 334.289 44.736C332.825 44.736 331.607 45.12 330.635 45.888C329.675 46.656 329.123 47.712 328.979 49.056ZM353.09 60.522C351.614 60.522 350.234 60.312 348.95 59.892C347.666 59.472 346.586 58.908 345.71 58.2L347.204 55.302C348.032 55.95 348.962 56.46 349.994 56.832C351.038 57.204 352.064 57.39 353.072 57.39C354.236 57.39 355.142 57.186 355.79 56.778C356.438 56.37 356.762 55.8 356.762 55.068C356.762 54.372 356.48 53.862 355.916 53.538C355.364 53.202 354.308 52.854 352.748 52.494C350.504 52.026 348.872 51.366 347.852 50.514C346.844 49.65 346.34 48.456 346.34 46.932C346.34 45.864 346.634 44.922 347.222 44.106C347.822 43.278 348.644 42.63 349.688 42.162C350.732 41.694 351.938 41.46 353.306 41.46C354.638 41.46 355.892 41.652 357.068 42.036C358.244 42.408 359.264 42.936 360.128 43.62L358.724 46.536C358.28 46.14 357.764 45.798 357.176 45.51C356.588 45.222 355.964 45 355.304 44.844C354.656 44.676 354.008 44.592 353.36 44.592C352.352 44.592 351.53 44.79 350.894 45.186C350.27 45.57 349.958 46.104 349.958 46.788C349.958 47.496 350.258 48.018 350.858 48.354C351.458 48.69 352.49 49.026 353.954 49.362C356.258 49.866 357.908 50.538 358.904 51.378C359.9 52.218 360.398 53.382 360.398 54.87C360.398 56.01 360.092 57.006 359.48 57.858C358.868 58.698 358.01 59.352 356.906 59.82C355.814 60.288 354.542 60.522 353.09 60.522Z" fill="white"/>
<rect x="1.5" y="1.5" width="515" height="94" rx="47" stroke="#D9D9D9" stroke-width="3"/>
</svg>
