<svg width="518" height="97" viewBox="0 0 518 97" fill="none" xmlns="http://www.w3.org/2000/svg">
<path d="M112.276 60V34.8H116.182L126.46 51.522L124.894 51.54L134.794 34.8H138.628V60H134.686L134.74 40.164L135.514 40.434L126.946 54.564H123.994L115.264 40.434L115.912 40.164L115.966 60H112.276ZM152.778 60.54C150.918 60.54 149.256 60.114 147.792 59.262C146.34 58.398 145.2 57.252 144.372 55.824C143.544 54.384 143.13 52.806 143.13 51.09C143.13 49.818 143.364 48.618 143.832 47.49C144.312 46.35 144.984 45.342 145.848 44.466C146.724 43.59 147.75 42.9 148.926 42.396C150.102 41.892 151.392 41.64 152.796 41.64C154.656 41.64 156.312 42.072 157.764 42.936C159.228 43.788 160.374 44.934 161.202 46.374C162.03 47.802 162.444 49.374 162.444 51.09C162.444 52.35 162.204 53.55 161.724 54.69C161.256 55.83 160.59 56.838 159.726 57.714C158.862 58.59 157.842 59.28 156.666 59.784C155.49 60.288 154.194 60.54 152.778 60.54ZM152.778 57.03C153.882 57.03 154.86 56.79 155.712 56.31C156.576 55.818 157.254 55.128 157.746 54.24C158.238 53.352 158.484 52.302 158.484 51.09C158.484 49.878 158.238 48.828 157.746 47.94C157.254 47.04 156.576 46.35 155.712 45.87C154.86 45.39 153.882 45.15 152.778 45.15C151.674 45.15 150.69 45.39 149.826 45.87C148.974 46.35 148.302 47.04 147.81 47.94C147.33 48.828 147.09 49.878 147.09 51.09C147.09 52.302 147.336 53.352 147.828 54.24C148.32 55.128 148.992 55.818 149.844 56.31C150.708 56.79 151.686 57.03 152.778 57.03ZM166.422 60V42.18H170.382V44.646C171.054 43.53 171.87 42.75 172.83 42.306C173.79 41.85 174.822 41.622 175.926 41.622C176.286 41.622 176.628 41.64 176.952 41.676C177.276 41.712 177.588 41.766 177.888 41.838L177.366 45.924C177.006 45.816 176.64 45.732 176.268 45.672C175.896 45.612 175.524 45.582 175.152 45.582C173.772 45.582 172.632 46.008 171.732 46.86C170.832 47.7 170.382 48.846 170.382 50.298V60H166.422ZM188.972 60.54C187.052 60.54 185.366 60.15 183.914 59.37C182.462 58.578 181.328 57.474 180.512 56.058C179.708 54.642 179.306 52.998 179.306 51.126C179.306 49.758 179.54 48.498 180.008 47.346C180.476 46.182 181.136 45.174 181.988 44.322C182.84 43.47 183.836 42.81 184.976 42.342C186.128 41.874 187.382 41.64 188.738 41.64C190.214 41.64 191.528 41.904 192.68 42.432C193.832 42.948 194.786 43.674 195.542 44.61C196.31 45.546 196.85 46.644 197.162 47.904C197.486 49.152 197.54 50.508 197.324 51.972H183.104C183.08 53.04 183.314 53.976 183.806 54.78C184.298 55.572 185 56.19 185.912 56.634C186.836 57.078 187.922 57.3 189.17 57.3C190.178 57.3 191.15 57.15 192.086 56.85C193.034 56.538 193.892 56.082 194.66 55.482L196.19 58.326C195.614 58.794 194.918 59.196 194.102 59.532C193.286 59.856 192.434 60.102 191.546 60.27C190.658 60.45 189.8 60.54 188.972 60.54ZM183.338 49.056H193.436C193.4 47.712 192.968 46.656 192.14 45.888C191.324 45.12 190.16 44.736 188.648 44.736C187.184 44.736 185.966 45.12 184.994 45.888C184.034 46.656 183.482 47.712 183.338 49.056ZM215.212 60.54C213.976 60.54 212.89 60.312 211.954 59.856C211.018 59.388 210.286 58.734 209.758 57.894C209.242 57.042 208.984 56.04 208.984 54.888C208.984 53.916 209.23 53.04 209.722 52.26C210.214 51.468 210.976 50.814 212.008 50.298C213.052 49.782 214.39 49.44 216.022 49.272C217.654 49.092 219.616 49.116 221.908 49.344L221.98 52.08C220.348 51.852 218.944 51.756 217.768 51.792C216.592 51.828 215.626 51.978 214.87 52.242C214.126 52.494 213.574 52.836 213.214 53.268C212.866 53.688 212.692 54.174 212.692 54.726C212.692 55.59 212.998 56.256 213.61 56.724C214.234 57.192 215.086 57.426 216.166 57.426C217.09 57.426 217.918 57.258 218.65 56.922C219.382 56.586 219.958 56.112 220.378 55.5C220.81 54.888 221.026 54.168 221.026 53.34V48.606C221.026 47.814 220.858 47.13 220.522 46.554C220.186 45.966 219.676 45.51 218.992 45.186C218.308 44.862 217.456 44.7 216.436 44.7C215.5 44.7 214.576 44.844 213.664 45.132C212.752 45.408 211.882 45.846 211.054 46.446L209.938 43.53C211.054 42.774 212.218 42.24 213.43 41.928C214.642 41.616 215.806 41.46 216.922 41.46C218.578 41.46 219.994 41.724 221.17 42.252C222.358 42.768 223.27 43.554 223.906 44.61C224.542 45.654 224.86 46.974 224.86 48.57V60H221.296V57.894C220.696 58.746 219.862 59.4 218.794 59.856C217.726 60.312 216.532 60.54 215.212 60.54ZM240.493 60.54C239.305 60.54 238.231 60.366 237.271 60.018C236.323 59.67 235.501 59.19 234.805 58.578C234.109 57.954 233.545 57.24 233.113 56.436L233.689 55.554V60H230.125V34.08H234.067V46.284L233.257 45.402C234.049 44.25 235.039 43.338 236.227 42.666C237.415 41.982 238.819 41.64 240.439 41.64C242.215 41.64 243.775 42.066 245.119 42.918C246.475 43.758 247.531 44.892 248.287 46.32C249.043 47.748 249.421 49.338 249.421 51.09C249.421 52.446 249.199 53.7 248.755 54.852C248.323 56.004 247.711 57.006 246.919 57.858C246.127 58.698 245.185 59.358 244.093 59.838C243.001 60.306 241.801 60.54 240.493 60.54ZM239.773 57.03C240.865 57.03 241.837 56.79 242.689 56.31C243.553 55.818 244.231 55.128 244.723 54.24C245.215 53.352 245.461 52.302 245.461 51.09C245.461 49.878 245.215 48.828 244.723 47.94C244.243 47.04 243.571 46.35 242.707 45.87C241.855 45.39 240.877 45.15 239.773 45.15C238.669 45.15 237.685 45.39 236.821 45.87C235.969 46.35 235.297 47.04 234.805 47.94C234.313 48.828 234.067 49.878 234.067 51.09C234.067 52.302 234.313 53.352 234.805 54.24C235.297 55.128 235.969 55.818 236.821 56.31C237.685 56.79 238.669 57.03 239.773 57.03ZM261.692 60.54C259.832 60.54 258.17 60.114 256.706 59.262C255.254 58.398 254.114 57.252 253.286 55.824C252.458 54.384 252.044 52.806 252.044 51.09C252.044 49.818 252.278 48.618 252.746 47.49C253.226 46.35 253.898 45.342 254.762 44.466C255.638 43.59 256.664 42.9 257.84 42.396C259.016 41.892 260.306 41.64 261.71 41.64C263.57 41.64 265.226 42.072 266.678 42.936C268.142 43.788 269.288 44.934 270.116 46.374C270.944 47.802 271.358 49.374 271.358 51.09C271.358 52.35 271.118 53.55 270.638 54.69C270.17 55.83 269.504 56.838 268.64 57.714C267.776 58.59 266.756 59.28 265.58 59.784C264.404 60.288 263.108 60.54 261.692 60.54ZM261.692 57.03C262.796 57.03 263.774 56.79 264.626 56.31C265.49 55.818 266.168 55.128 266.66 54.24C267.152 53.352 267.398 52.302 267.398 51.09C267.398 49.878 267.152 48.828 266.66 47.94C266.168 47.04 265.49 46.35 264.626 45.87C263.774 45.39 262.796 45.15 261.692 45.15C260.588 45.15 259.604 45.39 258.74 45.87C257.888 46.35 257.216 47.04 256.724 47.94C256.244 48.828 256.004 49.878 256.004 51.09C256.004 52.302 256.25 53.352 256.742 54.24C257.234 55.128 257.906 55.818 258.758 56.31C259.622 56.79 260.6 57.03 261.692 57.03ZM282.212 60.54C280.616 60.54 279.296 60.222 278.252 59.586C277.22 58.938 276.446 58.086 275.93 57.03C275.414 55.974 275.156 54.822 275.156 53.574V42.18H279.116V52.836C279.116 54.06 279.476 55.044 280.196 55.788C280.928 56.52 281.936 56.886 283.22 56.886C284.06 56.886 284.81 56.7 285.47 56.328C286.13 55.944 286.652 55.41 287.036 54.726C287.432 54.042 287.63 53.25 287.63 52.35V42.18H291.59V60H288.026V57.894C287.33 58.734 286.502 59.388 285.542 59.856C284.594 60.312 283.484 60.54 282.212 60.54ZM304.586 60.54C302.846 60.54 301.454 60.036 300.41 59.028C299.366 58.02 298.844 56.478 298.844 54.402V36.978H302.804V42.18H307.754V45.456H302.804V53.538C302.804 54.786 303.038 55.668 303.506 56.184C303.986 56.688 304.658 56.94 305.522 56.94C305.942 56.94 306.338 56.892 306.71 56.796C307.082 56.7 307.418 56.574 307.718 56.418L308.42 59.622C307.904 59.886 307.31 60.102 306.638 60.27C305.978 60.45 305.294 60.54 304.586 60.54ZM294.938 45.456V42.18H299.366V45.456H294.938ZM328.879 60.54C327.139 60.54 325.747 60.036 324.703 59.028C323.659 58.02 323.137 56.478 323.137 54.402V36.978H327.097V42.18H332.047V45.456H327.097V53.538C327.097 54.786 327.331 55.668 327.799 56.184C328.279 56.688 328.951 56.94 329.815 56.94C330.235 56.94 330.631 56.892 331.003 56.796C331.375 56.7 331.711 56.574 332.011 56.418L332.713 59.622C332.197 59.886 331.603 60.102 330.931 60.27C330.271 60.45 329.587 60.54 328.879 60.54ZM319.231 45.456V42.18H323.659V45.456H319.231ZM344.89 60.54C342.97 60.54 341.284 60.15 339.832 59.37C338.38 58.578 337.246 57.474 336.43 56.058C335.626 54.642 335.224 52.998 335.224 51.126C335.224 49.758 335.458 48.498 335.926 47.346C336.394 46.182 337.054 45.174 337.906 44.322C338.758 43.47 339.754 42.81 340.894 42.342C342.046 41.874 343.3 41.64 344.656 41.64C346.132 41.64 347.446 41.904 348.598 42.432C349.75 42.948 350.704 43.674 351.46 44.61C352.228 45.546 352.768 46.644 353.08 47.904C353.404 49.152 353.458 50.508 353.242 51.972H339.022C338.998 53.04 339.232 53.976 339.724 54.78C340.216 55.572 340.918 56.19 341.83 56.634C342.754 57.078 343.84 57.3 345.088 57.3C346.096 57.3 347.068 57.15 348.004 56.85C348.952 56.538 349.81 56.082 350.578 55.482L352.108 58.326C351.532 58.794 350.836 59.196 350.02 59.532C349.204 59.856 348.352 60.102 347.464 60.27C346.576 60.45 345.718 60.54 344.89 60.54ZM339.256 49.056H349.354C349.318 47.712 348.886 46.656 348.058 45.888C347.242 45.12 346.078 44.736 344.566 44.736C343.102 44.736 341.884 45.12 340.912 45.888C339.952 46.656 339.4 47.712 339.256 49.056ZM362.306 60.54C361.07 60.54 359.984 60.312 359.048 59.856C358.112 59.388 357.38 58.734 356.852 57.894C356.336 57.042 356.078 56.04 356.078 54.888C356.078 53.916 356.324 53.04 356.816 52.26C357.308 51.468 358.07 50.814 359.102 50.298C360.146 49.782 361.484 49.44 363.116 49.272C364.748 49.092 366.71 49.116 369.002 49.344L369.074 52.08C367.442 51.852 366.038 51.756 364.862 51.792C363.686 51.828 362.72 51.978 361.964 52.242C361.22 52.494 360.668 52.836 360.308 53.268C359.96 53.688 359.786 54.174 359.786 54.726C359.786 55.59 360.092 56.256 360.704 56.724C361.328 57.192 362.18 57.426 363.26 57.426C364.184 57.426 365.012 57.258 365.744 56.922C366.476 56.586 367.052 56.112 367.472 55.5C367.904 54.888 368.12 54.168 368.12 53.34V48.606C368.12 47.814 367.952 47.13 367.616 46.554C367.28 45.966 366.77 45.51 366.086 45.186C365.402 44.862 364.55 44.7 363.53 44.7C362.594 44.7 361.67 44.844 360.758 45.132C359.846 45.408 358.976 45.846 358.148 46.446L357.032 43.53C358.148 42.774 359.312 42.24 360.524 41.928C361.736 41.616 362.9 41.46 364.016 41.46C365.672 41.46 367.088 41.724 368.264 42.252C369.452 42.768 370.364 43.554 371 44.61C371.636 45.654 371.954 46.974 371.954 48.57V60H368.39V57.894C367.79 58.746 366.956 59.4 365.888 59.856C364.82 60.312 363.626 60.54 362.306 60.54ZM377.219 60V42.18H381.179V44.628C381.659 43.932 382.211 43.368 382.835 42.936C383.459 42.492 384.119 42.168 384.815 41.964C385.511 41.748 386.219 41.64 386.939 41.64C388.391 41.64 389.597 41.958 390.557 42.594C391.529 43.23 392.213 44.046 392.609 45.042C393.497 43.746 394.529 42.858 395.705 42.378C396.881 41.886 398.063 41.64 399.251 41.64C400.895 41.64 402.209 41.964 403.193 42.612C404.177 43.26 404.885 44.094 405.317 45.114C405.761 46.134 405.983 47.184 405.983 48.264V60H402.023V49.416C402.023 48.18 401.681 47.184 400.997 46.428C400.325 45.66 399.341 45.276 398.045 45.276C397.193 45.276 396.431 45.462 395.759 45.834C395.087 46.206 394.553 46.722 394.157 47.382C393.773 48.03 393.581 48.78 393.581 49.632V60H389.621V49.416C389.621 48.18 389.285 47.184 388.613 46.428C387.941 45.66 386.951 45.276 385.643 45.276C384.803 45.276 384.041 45.462 383.357 45.834C382.685 46.206 382.151 46.722 381.755 47.382C381.371 48.03 381.179 48.78 381.179 49.632V60H377.219Z" fill="white"/>
<rect x="1.5" y="1.5" width="515" height="94" rx="47" stroke="#D9D9D9" stroke-width="3"/>
</svg>
