<svg width="97" height="97" viewBox="0 0 97 97" fill="none" xmlns="http://www.w3.org/2000/svg">
<circle cx="48.3764" cy="48.3764" r="46.8764" stroke="white" stroke-width="3"/>
<path d="M17.5413 49.225C16.7128 49.225 16.0413 49.8965 16.0413 50.725C16.0413 51.5534 16.7128 52.225 17.5413 52.225V49.225ZM80.2725 51.7856C80.8583 51.1998 80.8583 50.2501 80.2725 49.6643L70.7265 40.1184C70.1407 39.5326 69.191 39.5326 68.6052 40.1184C68.0194 40.7042 68.0194 41.6539 68.6052 42.2397L77.0905 50.725L68.6052 59.2103C68.0194 59.796 68.0194 60.7458 68.6052 61.3316C69.191 61.9174 70.1407 61.9174 70.7265 61.3316L80.2725 51.7856ZM17.5413 52.225H79.2118V49.225H17.5413V52.225Z" fill="white"/>
</svg>
